<?xml version="1.0" encoding="UTF-8" standalone="no"?>
<!-- Created with Inkscape (http://www.inkscape.org/) -->

<svg
   width="251.5"
   height="229"
   viewBox="0 0 66.542706 60.589585"
   version="1.1"
   id="svg5"
   xml:space="preserve"
   xmlns:xlink="http://www.w3.org/1999/xlink"
   xmlns="http://www.w3.org/2000/svg"
   xmlns:svg="http://www.w3.org/2000/svg"
   xmlns:rdf="http://www.w3.org/1999/02/22-rdf-syntax-ns#"
   xmlns:cc="http://creativecommons.org/ns#"
   xmlns:dc="http://purl.org/dc/elements/1.1/"><title
     id="title8977">United International University - ইউনাইটেড ইন্টারন্যাশনাল ইউনিভার্সিটি</title><defs
     id="defs2"><linearGradient
       id="linearGradient9108"><stop
         style="stop-color:#1a1a1a;stop-opacity:1;"
         offset="0"
         id="stop9104" /><stop
         style="stop-color:#1a1a1a;stop-opacity:0;"
         offset="1"
         id="stop9106" /></linearGradient><linearGradient
       id="linearGradient8174"><stop
         style="stop-color:#1a1a1a;stop-opacity:1;"
         offset="0"
         id="stop8170" /><stop
         style="stop-color:#1a1a1a;stop-opacity:0;"
         offset="1"
         id="stop8172" /></linearGradient><linearGradient
       xlink:href="#linearGradient8174"
       id="linearGradient8664"
       gradientUnits="userSpaceOnUse"
       gradientTransform="matrix(-0.95215261,0,0,1,194.41079,0)"
       x1="85.2929"
       y1="55.536148"
       x2="86.318031"
       y2="55.536148" /><linearGradient
       xlink:href="#linearGradient9108"
       id="linearGradient8756"
       gradientUnits="userSpaceOnUse"
       gradientTransform="matrix(0.95215261,0,0,1,4.0597827,0)"
       x1="85.2929"
       y1="55.536148"
       x2="86.318031"
       y2="55.536148" /><pattern
       id="EMFhbasepattern"
       patternUnits="userSpaceOnUse"
       width="6"
       height="6"
       x="0"
       y="0" /><pattern
       id="EMFhbasepattern-8"
       patternUnits="userSpaceOnUse"
       width="6"
       height="6"
       x="0"
       y="0" /><pattern
       id="EMFhbasepattern-7"
       patternUnits="userSpaceOnUse"
       width="6"
       height="6"
       x="0"
       y="0" /><pattern
       id="EMFhbasepattern-6"
       patternUnits="userSpaceOnUse"
       width="6"
       height="6"
       x="0"
       y="0" /></defs><g
     id="layer1"
     transform="translate(-26.211763,-16.998303)"><g
       id="g8973"
       transform="translate(0.19843737,0.16617259)"><g
         id="g8750"
         transform="matrix(0.58125077,0,0,0.58125077,1.7487988,11.116545)"><path
           id="rect8694"
           style="opacity:1;fill:#ffffff;fill-opacity:1;fill-rule:evenodd;stroke-width:6.00024;stop-color:#000000;stop-opacity:1"
           d="M 65.143459,10.60573 H 132.8292 V 57.119883 A 33.842872,33.842872 0 0 1 98.986331,90.962755 33.842872,33.842872 0 0 1 65.143459,57.119883 Z" /><g
           id="g8607"><g
             id="g3461"><path
               style="color:#000000;fill:#f56726;fill-opacity:1;fill-rule:evenodd"
               d="m 64.65625,10.119141 v 1.574218 45.466797 c 0,18.941505 15.388574,34.330078 34.330078,34.330078 18.941502,0 34.330082,-15.388573 34.330082,-34.330078 V 10.119141 Z m 3.148437,3.148437 h 62.363283 v 43.892578 c 0,17.239909 -13.94174,31.181641 -31.181642,31.181641 -17.239909,0 -31.181641,-13.941731 -31.181641,-31.181641 z"
               id="path1027" /><path
               style="color:#000000;fill:#ffffff;fill-rule:evenodd"
               d="m 65.705078,11.167969 v 0.52539 45.466797 c 0,18.37433 14.906921,33.279297 33.28125,33.279297 18.374322,0 33.281252,-14.904967 33.281252,-33.279297 V 11.167969 Z m 1.050781,1.048828 H 131.2168 v 44.943359 c 0,17.807085 -14.42339,32.230469 -32.230472,32.230469 -17.807084,0 -32.230469,-14.423384 -32.230469,-32.230469 z"
               id="path1016" /></g><g
             id="g8584"><path
               id="rect5410"
               style="display:inline;fill:#f56726;fill-opacity:1;fill-rule:evenodd;stroke-width:0.843663;stop-color:#000000"
               d="m 69.18551,14.648398 h 59.60164 V 39.06347 H 69.18551 Z" /><g
               id="g6374"
               transform="translate(-0.4941385,-0.305298)"><path
                 style="font-variation-settings:normal;fill:#ffffff;fill-opacity:1;fill-rule:evenodd;stroke-width:0.379864;stroke-linecap:butt;stroke-linejoin:miter;stroke-miterlimit:4;stroke-dasharray:none;stroke-dashoffset:0;stroke-opacity:1;stop-color:#000000"
                 d="m 95.633682,18.632812 v 17.05684 h 7.693568 v -17.05684 z"
                 id="path6335" /><path
                 style="color:#000000;fill:#ffffff;fill-opacity:1;fill-rule:evenodd"
                 d="m 76.242187,18.632812 v 8.802735 c 0,4.513631 3.740276,8.253906 8.253907,8.253906 4.513631,0 8.255859,-3.740271 8.255859,-8.253906 v -8.802735 h -7.693359 v 8.802735 c 0,0.355732 -0.206768,0.560547 -0.5625,0.560547 -0.355732,0 -0.560547,-0.204819 -0.560547,-0.560547 v -8.802735 z"
                 id="rect6329" /><path
                 style="color:#000000;fill:#ffffff;fill-opacity:1;fill-rule:evenodd"
                 d="m 106.20898,18.632812 v 8.802735 c 0,4.513627 3.74028,8.253901 8.25391,8.253906 4.51363,5e-6 8.25586,-3.740272 8.25586,-8.253906 v -8.802735 h -7.69336 v 8.802735 c 0,0.355732 -0.20677,0.560547 -0.5625,0.560547 -0.35573,-1e-6 -0.56055,-0.204816 -0.56055,-0.560547 v -8.802735 z"
                 id="path6346" /></g></g><path
             id="path2163"
             style="font-size:7.27604px;line-height:125%;font-family:'Helvetica Condensed';letter-spacing:0.204179px;word-spacing:0px;stroke-width:0.612633"
             d="m 123.21533,45.072701 v 1.115694 l 2.08928,0.799434 -2.08928,0.831474 v 1.115178 l 3.13366,-1.421102 h 2.32337 v -1.019576 h -2.32337 z m -52.288803,0.0031 c -0.622915,0 -1.069444,0.131388 -1.339453,0.394292 -0.26764,0.262903 -0.401526,0.713178 -0.401526,1.350305 0,0.639495 0.14013,1.086024 0.419613,1.339453 0.281851,0.25343 0.722136,0.379822 1.321366,0.379822 h 3.82974 v -1.019576 h -3.744474 c -0.388433,0 -0.652458,-0.05685 -0.792199,-0.170533 -0.139742,-0.111319 -0.209807,-0.297053 -0.209807,-0.557588 0,-0.241587 0.07506,-0.417848 0.224276,-0.529167 0.151584,-0.11132 0.410613,-0.167432 0.77773,-0.167432 h 3.744474 v -1.019576 z m 52.288803,4.236951 v 3.407027 h 0.79944 v -1.193725 h 4.65759 v -1.019576 h -4.65759 v -1.193726 z m -53.916094,0.411861 v 1.019576 h 3.36827 l -3.36827,1.378728 v 1.065568 h 5.457031 v -1.019576 h -3.453019 l 3.453019,-1.378211 v -1.066085 z m 53.916094,3.807003 v 1.019576 h 5.45703 v -1.019576 z m -53.916094,0.855762 v 1.019576 h 5.457031 v -1.019576 z m 57.852804,1.200443 c -0.34682,0.0049 -0.63063,0.09645 -0.85163,0.274402 -0.23804,0.187407 -0.51171,0.509194 -0.82113,0.965316 -0.2946,0.423236 -0.49596,0.689104 -0.60462,0.798401 -0.11098,0.1069 -0.26044,0.158562 -0.44752,0.155029 -0.34099,-0.0064 -0.50767,-0.194369 -0.50074,-0.56379 0.007,-0.393099 0.26299,-0.584638 0.76739,-0.575159 l 0.18139,0.0036 0.0186,-0.987537 c -0.61807,-0.01162 -1.06818,0.100595 -1.34979,0.336931 -0.28392,0.233923 -0.4311,0.635936 -0.44183,1.206644 -0.0201,1.070377 0.44911,1.614949 1.40818,1.632976 0.35048,0.0066 0.65354,-0.09192 0.90847,-0.29559 0.25498,-0.20604 0.51386,-0.509371 0.77722,-0.909505 0.25362,-0.386104 0.45318,-0.647402 0.59789,-0.784448 0.14476,-0.139385 0.32953,-0.207289 0.55449,-0.203089 0.41679,0.0078 0.6217,0.204665 0.61443,0.590662 -0.008,0.430992 -0.31443,0.640772 -0.91829,0.629419 l -0.31626,-0.0057 -0.0191,1.019576 0.42634,0.0078 c 1.07987,0.0203 1.63026,-0.523679 1.65106,-1.631942 0.01,-0.525714 -0.12347,-0.931947 -0.39998,-1.219047 -0.2765,-0.287099 -0.6646,-0.43554 -1.16427,-0.444934 -0.0237,-4.45e-4 -0.0472,-3.24e-4 -0.0703,0 z m -52.440214,0.467155 -0.798918,0.02377 0.03617,1.193209 -4.65553,0.14056 0.03101,1.019576 4.655529,-0.141077 0.03566,1.193209 0.799435,-0.02377 z m 49.491554,3.316077 c -0.27662,0.0021 -0.51523,0.0771 -0.71571,0.224276 -0.26696,0.19389 -0.44195,0.559662 -0.52452,1.098124 l -0.29507,1.92443 5.39398,0.82734 0.15452,-1.007691 -2.33164,-0.357601 0.0558,-0.365352 c 0.0689,-0.449498 0.17316,-0.721231 0.31212,-0.814937 0.13663,-0.09407 0.42111,-0.107755 0.85421,-0.04134 0.69298,0.106259 1.13897,0.137387 1.33739,0.09353 l 0.16898,-1.102775 -0.0982,-0.01499 c -0.15372,0.12739 -0.591,0.135891 -1.31207,0.02532 l -0.42168,-0.06459 c -0.29498,-0.04524 -0.53576,-0.01391 -0.72243,0.09405 -0.18669,0.107956 -0.32029,0.292151 -0.40101,0.552938 0.01,-0.578402 -0.37921,-0.927893 -1.16582,-1.048515 -0.10067,-0.01544 -0.19667,-0.02291 -0.28888,-0.02222 z m -49.367531,0.204122 -5.392952,0.832507 0.441316,2.861324 0.790133,-0.121956 -0.286287,-1.853634 1.654162,-0.255281 0.264067,1.71359 0.790132,-0.121956 -0.264583,-1.713591 1.369426,-0.211356 0.286287,1.85415 0.790133,-0.121956 z m 49.424901,0.8816 c 0.0786,-0.0018 0.16744,0.0049 0.26665,0.02015 0.51737,0.07934 0.74414,0.329971 0.67954,0.751375 l -0.11214,0.730188 -1.48208,-0.22686 0.11214,-0.730704 c 0.0355,-0.231773 0.11208,-0.386722 0.22944,-0.464572 0.0736,-0.05012 0.17551,-0.07663 0.30645,-0.07958 z m -48.94276,2.210201 -5.218803,1.594734 0.552938,1.810743 c 0.123886,0.405457 0.319016,0.68293 0.584977,0.83199 0.27345,0.149247 0.598774,0.213436 0.976168,0.192236 0.377395,-0.0212 0.900168,-0.133794 1.56838,-0.337963 0.675007,-0.206246 1.156204,-0.391694 1.442806,-0.556039 0.288867,-0.165036 0.488593,-0.361391 0.599963,-0.588594 0.164665,-0.320262 0.200062,-0.634522 0.105937,-0.942578 z m 47.29531,0.127641 -0.84336,2.769856 5.22035,1.589567 0.84336,-2.770373 -0.76429,-0.232544 -0.54674,1.794722 -1.60093,-0.487825 0.50539,-1.658297 -0.76481,-0.233061 -0.50488,1.658814 -1.3255,-0.403593 0.54622,-1.794723 z m -47.761948,1.08107 0.186035,0.608232 c 0.08651,0.28314 0.02111,0.512192 -0.195337,0.687297 -0.216446,0.175104 -0.68342,0.372299 -1.401464,0.591695 -0.756552,0.231162 -1.275166,0.329075 -1.555978,0.293522 -0.278546,-0.03624 -0.473549,-0.236829 -0.584977,-0.601514 l -0.137976,-0.451652 z m 46.932028,1.755449 -0.46044,0.996321 3.76876,2.566769 -4.41678,-1.163753 -0.46044,0.996838 5.45496,1.204578 0.56741,-1.228866 z m -44.516671,2.324406 -4.836398,2.528011 0.472323,0.903821 4.836397,-2.528011 z m 42.755531,1.277958 -0.52658,0.873332 4.67413,2.816882 0.52607,-0.873332 z m -42.055316,0.142627 -4.510836,3.07113 0.573609,0.842843 2.784326,-1.895492 -2.008663,3.034957 0.599963,0.881083 4.510836,-3.07113 -0.573608,-0.842843 -2.854606,1.943551 2.078943,-3.083016 z m 41.266226,1.240751 -0.62374,0.806669 2.73213,2.112016 -3.57549,-1.021643 -0.65164,0.842842 4.31653,3.338298 0.62374,-0.806669 -2.66392,-2.060339 3.50728,0.969966 0.65215,-0.843359 z m -39.295803,1.645378 -0.590145,0.539502 0.805635,0.880566 -3.437516,3.142961 0.687813,0.752408 3.437517,-3.142443 0.805635,0.880566 0.589628,-0.538985 z m 36.949693,1.345654 -0.74156,0.699699 2.56935,2.723865 c 0.26653,0.282556 0.40641,0.513835 0.41961,0.693497 0.0149,0.178038 -0.072,0.356076 -0.26148,0.534851 -0.17574,0.165771 -0.35562,0.232658 -0.53898,0.200505 -0.18499,-0.03388 -0.40335,-0.184086 -0.65526,-0.451135 l -2.56935,-2.723865 -0.74208,0.699699 2.62827,2.785876 c 0.42744,0.453127 0.8296,0.687827 1.20612,0.703833 0.3749,0.01429 0.79382,-0.197397 1.25729,-0.634586 0.46515,-0.438814 0.69418,-0.847012 0.68678,-1.224215 -0.009,-0.378926 -0.21927,-0.786253 -0.63045,-1.222148 z m -34.576195,1.209745 -3.519165,4.170805 2.212785,1.86707 0.515214,-0.610816 -1.433504,-1.209745 1.07952,-1.278992 1.324984,1.118278 0.515214,-0.610815 -1.324984,-1.118278 0.894003,-1.05885 1.433504,1.209745 0.515214,-0.610816 z m 2.354378,1.989543 -2.889229,4.629175 0.865063,0.540018 1.24902,-2.001428 0.313159,0.195854 c 0.385792,0.240754 0.594555,0.44304 0.625802,0.607715 0.0325,0.162665 -0.06723,0.43029 -0.299207,0.802018 -0.37116,0.594766 -0.575889,0.991523 -0.613916,1.191142 l 0.946712,0.590661 0.05219,-0.08423 c -0.05637,-0.191521 0.10885,-0.596552 0.49506,-1.21543 l 0.225826,-0.361735 c 0.157991,-0.253177 0.223937,-0.487112 0.198437,-0.701249 -0.0255,-0.214137 -0.142101,-0.409421 -0.349849,-0.586528 0.527641,0.237142 1.002367,0.01781 1.423685,-0.657324 0.215676,-0.345608 0.286144,-0.679976 0.211357,-1.003039 -0.07278,-0.32181 -0.340385,-0.626787 -0.802535,-0.91519 z m 0.441834,1.217497 0.626835,0.391707 c 0.198926,0.124138 0.310697,0.255206 0.335897,0.393774 0.02721,0.139822 -0.02987,0.323299 -0.171566,0.550354 -0.277118,0.444065 -0.596399,0.553335 -0.958081,0.327629 l -0.626835,-0.391191 z m 26.193243,0.02687 -0.87179,0.52865 2.82929,4.665865 2.47582,-1.5012 -0.41445,-0.683679 -1.60403,0.97255 z m -23.385663,0.752409 -2.128035,5.0245 0.938961,0.397908 1.313098,-3.101619 -0.04393,3.639054 0.981335,0.415479 2.128036,-5.0245 -0.938961,-0.397908 -1.346688,3.180167 0.07751,-3.717602 z m 21.374933,0.31781 -1.25522,0.542603 0.96583,5.527828 1.00769,-0.435633 -0.30179,-1.386995 1.08934,-0.471289 0.80047,1.171505 1.00769,-0.436149 z m -2.40296,1.025777 -0.9865,0.259416 0.87901,3.339331 -2.21175,-2.988448 -1.03094,0.271301 1.38906,5.277198 0.98599,-0.259416 -0.85731,-3.257166 2.19056,2.906283 1.03043,-0.271301 z m 2.17971,0.185519 1.26814,1.893941 -0.79891,0.345199 z m -16.758669,0.141076 -2.615344,4.964555 1.063501,0.271302 0.609265,-1.282093 1.1498,0.293522 -0.08217,1.415935 1.063501,0.271818 0.136942,-5.597075 z m 2.183329,0.563274 -0.09043,0.794266 1.185975,0.134876 -0.527617,4.628141 1.013375,0.115239 0.527616,-4.627625 1.185974,0.134876 0.09043,-0.79375 z m 7.28845,0.09508 c -0.0999,8.16e-4 -0.20528,0.0069 -0.31574,0.01809 -0.63153,0.06396 -1.06692,0.276939 -1.30638,0.639237 -0.239467,0.362298 -0.314213,0.989996 -0.223768,1.88309 l 0.109558,1.081587 c 0.0847,0.836539 0.28151,1.403403 0.59015,1.700672 0.30863,0.297269 0.78124,0.413766 1.41748,0.349332 0.65745,-0.06658 1.09607,-0.282404 1.3162,-0.647505 0.22225,-0.367697 0.29301,-0.952189 0.21187,-1.753382 l -0.11058,-1.088305 c -0.0821,-0.810618 -0.25971,-1.391719 -0.5333,-1.74253 -0.23105,-0.297985 -0.61611,-0.44469 -1.15549,-0.440283 z m -3.617873,0.24753 -0.07028,5.456515 1.019576,0.01344 0.07028,-5.456515 z m -5.445662,0.254248 -0.154513,2.273763 -0.843876,-0.214974 z m 8.918845,0.33228 c 0.42727,0.0043 0.6787,0.383038 0.75499,1.136365 l 0.17518,1.728576 c 0.073,0.721075 -0.13641,1.106645 -0.6289,1.156519 -0.46893,0.04749 -0.74163,-0.303816 -0.81752,-1.053166 l -0.17829,-1.760099 c -0.0764,-0.754066 0.12597,-1.155381 0.60669,-1.204061 0.03,-0.003 0.0594,-0.0044 0.0879,-0.0041 z" /><g
             id="g3314"
             transform="matrix(1,0,0,1.0085737,1.5e-6,-0.65089513)"><path
               id="rect6398"
               style="font-variation-settings:normal;display:inline;fill:#1a1a1a;fill-opacity:1;fill-rule:evenodd;stroke-width:0.271818;stroke-linecap:butt;stroke-linejoin:miter;stroke-miterlimit:4;stroke-dasharray:none;stroke-dashoffset:0;stroke-opacity:1;stop-color:#000000"
               d="m 83.848407,46.252777 v 19.626685 h 12.280272 v 1.014408 h 2.85765 2.857651 v -1.014408 h 12.28027 V 46.252777 Z" /><rect
               style="font-variation-settings:normal;opacity:1;fill:#000000;fill-opacity:1;fill-rule:evenodd;stroke-width:0.38433;stroke-linecap:butt;stroke-linejoin:miter;stroke-miterlimit:4;stroke-dasharray:none;stroke-dashoffset:0;stroke-opacity:1;stop-color:#000000;stop-opacity:1"
               id="rect2614"
               width="29.225538"
               height="3.6058803"
               x="84.373558"
               y="61.856194" /><g
               id="g9744"
               transform="matrix(1.0369193,0,0,1,-3.9127206,0.28207677)"><path
                 id="path8654"
                 style="font-variation-settings:normal;fill:#ffffff;fill-opacity:1;stroke:none;stroke-width:0.423333;stroke-linecap:butt;stroke-linejoin:miter;stroke-miterlimit:4;stroke-dasharray:none;stroke-dashoffset:0;stroke-opacity:1;stop-color:#000000"
                 d="m 93.014994,45.002938 c -3.191506,0.0186 -6.332134,0.678681 -8.166427,1.133781 V 65.145377 C 87.712884,64.156028 95.846707,62.45678 99.235286,65.539669 102.62387,62.45678 110.75769,64.156028 113.622,65.145377 V 46.136719 c -3.08932,-0.766485 -9.88427,-2.114123 -14.386714,0 -1.829118,-0.858863 -4.03663,-1.146505 -6.220292,-1.133781 z" /><path
                 style="color:#000000;fill:#1a1a1a;fill-opacity:1"
                 d="m 93.013672,44.791016 c -3.219878,0.01876 -6.374127,0.683446 -8.216797,1.140625 l -0.160156,0.03906 v 19.472656 l 0.28125,-0.09766 c 1.409063,-0.486697 4.149966,-1.156722 6.939453,-1.318359 2.789487,-0.161637 5.618716,0.196284 7.236328,1.667968 l 0.140625,0.13086 0.142578,-0.13086 c 1.617617,-1.471684 4.446837,-1.829605 7.236327,-1.667968 2.78949,0.161637 5.53039,0.831662 6.93945,1.318359 l 0.28125,0.09766 V 45.970703 l -0.16015,-0.03906 c -3.08382,-0.765119 -9.82729,-2.11731 -14.433596,-0.01172 -1.855572,-0.850114 -4.054648,-1.141562 -6.226562,-1.128906 z m 0.002,0.423828 c 2.164242,-0.01261 4.34264,0.274539 6.128906,1.113281 l 0.08984,0.04297 0.0918,-0.04297 c 4.343842,-2.039651 10.958552,-0.778101 14.083992,-0.01172 v 18.554688 c -1.50076,-0.493003 -4.06557,-1.110671 -6.77344,-1.267578 -2.77488,-0.160791 -5.62047,0.171036 -7.402349,1.6875 -1.781956,-1.515555 -4.626159,-1.848254 -7.400391,-1.6875 -2.707867,0.156907 -5.272679,0.774575 -6.773437,1.267578 v -18.5625 c 1.84148,-0.451342 4.863211,-1.075735 7.955078,-1.09375 z"
                 id="path8656" /><path
                 id="path8660"
                 style="fill:url(#linearGradient8664);fill-opacity:1;fill-rule:evenodd;stroke-width:0.720259;stop-color:#000000"
                 d="m 113.62201,46.136719 -0.98722,-0.244422 v 18.932166 l 0.98722,0.355534 z" /><path
                 id="path8306"
                 style="color:#000000;fill:#1a1a1a;fill-opacity:1;stroke-width:0.999967;stroke-linecap:round;stroke-dasharray:none"
                 d="m 105.32373,47.273838 c -1.42666,-0.01036 -2.82696,0.150902 -4.19923,0.485758 a 0.079375,0.079375 0 0 0 -0.0584,0.0956 0.079375,0.079375 0 0 0 0.0956,0.05891 c 3.10741,-0.758255 6.35646,-0.615752 9.74773,0.396359 a 0.079375,0.079375 0 0 0 0.0997,-0.05478 0.079375,0.079375 0 0 0 -0.0527,-0.09767 c -1.70701,-0.509449 -3.38038,-0.801405 -5.01933,-0.869197 -0.20487,-0.0085 -0.40959,-0.01351 -0.6134,-0.01499 z m -0.30489,0.396875 c -1.32128,0.01314 -2.62009,0.174303 -3.89434,0.485241 a 0.079375,0.079375 0 0 0 -0.0584,0.09612 0.079375,0.079375 0 0 0 0.0956,0.05839 c 3.10741,-0.758256 6.35646,-0.615753 9.74773,0.396358 a 0.079375,0.079375 0 0 0 0.0997,-0.05478 0.079375,0.079375 0 0 0 -0.0527,-0.09767 c -1.70701,-0.50945 -3.38038,-0.801405 -5.01933,-0.869197 -0.3073,-0.01271 -0.61338,-0.0175 -0.91829,-0.01447 z m 0.30489,0.397908 c -1.42666,-0.01073 -2.82696,0.149355 -4.19923,0.484208 a 0.079375,0.079375 0 0 0 -0.0584,0.0956 0.079375,0.079375 0 0 0 0.0956,0.05839 c 3.10741,-0.758254 6.35646,-0.615754 9.74773,0.396358 a 0.079375,0.079375 0 0 0 0.0997,-0.05271 0.079375,0.079375 0 0 0 -0.0527,-0.09922 c -1.70701,-0.50945 -3.38038,-0.799855 -5.01933,-0.867647 -0.20487,-0.0085 -0.40959,-0.01345 -0.6134,-0.01499 z m 0,1.336353 c -1.42666,-0.01036 -2.82696,0.150902 -4.19923,0.485758 a 0.079375,0.079375 0 0 0 -0.0584,0.0956 0.079375,0.079375 0 0 0 0.0956,0.0584 c 3.10741,-0.758255 6.35646,-0.615753 9.74773,0.396358 a 0.079375,0.079375 0 0 0 0.0997,-0.05426 0.079375,0.079375 0 0 0 -0.0527,-0.09767 c -1.70701,-0.50945 -3.38038,-0.801405 -5.01933,-0.869197 -0.20487,-0.0085 -0.40959,-0.01351 -0.6134,-0.01499 z m 0,0.396358 c -1.42666,-0.01036 -2.82696,0.150901 -4.19923,0.485758 a 0.079375,0.079375 0 0 0 -0.0584,0.0956 0.079375,0.079375 0 0 0 0.0956,0.05839 c 3.10741,-0.758254 6.35646,-0.615237 9.74773,0.396875 a 0.079375,0.079375 0 0 0 0.0997,-0.05478 0.079375,0.079375 0 0 0 -0.0527,-0.09767 c -1.70701,-0.509451 -3.38038,-0.801405 -5.01933,-0.869198 -0.20487,-0.0085 -0.40959,-0.01351 -0.6134,-0.01499 z m -0.30489,0.398425 c -1.32128,0.01266 -2.62009,0.172756 -3.89434,0.483691 a 0.079375,0.079375 0 0 0 -0.0584,0.0956 0.079375,0.079375 0 0 0 0.0956,0.05891 c 3.10741,-0.758255 6.35646,-0.615753 9.74773,0.396358 a 0.079375,0.079375 0 0 0 0.0997,-0.05271 0.079375,0.079375 0 0 0 -0.0527,-0.09973 c -1.70701,-0.50945 -3.38038,-0.799339 -5.01933,-0.867131 -0.3073,-0.01271 -0.61338,-0.01791 -0.91829,-0.01499 z m 0.30489,1.335836 c -1.42666,-0.01036 -2.82696,0.150901 -4.19923,0.485758 a 0.079375,0.079375 0 0 0 -0.0584,0.0956 0.079375,0.079375 0 0 0 0.0956,0.05891 c 3.10741,-0.758254 6.35646,-0.615754 9.74773,0.396358 a 0.079375,0.079375 0 0 0 0.0997,-0.05478 0.079375,0.079375 0 0 0 -0.0527,-0.09767 c -1.70701,-0.509451 -3.38038,-0.801405 -5.01933,-0.869198 -0.20487,-0.0085 -0.40959,-0.01351 -0.6134,-0.01499 z m 0,0.388607 c -1.42666,-0.01036 -2.82696,0.150902 -4.19923,0.485758 a 0.079375,0.079375 0 0 0 -0.0584,0.0956 0.079375,0.079375 0 0 0 0.0956,0.05891 c 3.10741,-0.758256 6.35646,-0.617821 9.74773,0.394291 a 0.079375,0.079375 0 0 0 0.0997,-0.05271 0.079375,0.079375 0 0 0 -0.0527,-0.09974 c -1.70701,-0.50945 -3.38038,-0.799337 -5.01933,-0.86713 -0.20487,-0.0085 -0.40959,-0.01351 -0.6134,-0.01499 z m 0,0.388606 c -1.42666,-0.01073 -2.82696,0.148838 -4.19923,0.483692 a 0.079375,0.079375 0 0 0 -0.0584,0.09612 0.079375,0.079375 0 0 0 0.0956,0.05839 c 3.10741,-0.758255 6.35646,-0.615752 9.74773,0.396359 a 0.079375,0.079375 0 0 0 0.0997,-0.05271 0.079375,0.079375 0 0 0 -0.0527,-0.09922 c -1.70701,-0.509451 -3.38038,-0.799856 -5.01933,-0.867647 -0.20487,-0.0085 -0.40959,-0.01345 -0.6134,-0.01499 z m 0,0.387057 c -1.42666,-0.01036 -2.82696,0.150902 -4.19923,0.485758 a 0.079375,0.079375 0 0 0 -0.0584,0.0956 0.079375,0.079375 0 0 0 0.0956,0.05839 c 3.10741,-0.758255 6.35646,-0.615753 9.74773,0.396358 a 0.079375,0.079375 0 0 0 0.0997,-0.05426 0.079375,0.079375 0 0 0 -0.0527,-0.09767 c -1.70701,-0.509451 -3.38038,-0.801406 -5.01933,-0.869198 -0.20487,-0.0085 -0.40959,-0.01351 -0.6134,-0.01499 z m 0,0.388607 c -1.42666,-0.01036 -2.82696,0.150902 -4.19923,0.485758 a 0.079375,0.079375 0 0 0 -0.0584,0.0956 0.079375,0.079375 0 0 0 0.0956,0.05684 c 3.10741,-0.758256 6.35646,-0.615753 9.74773,0.396358 a 0.079375,0.079375 0 0 0 0.0997,-0.05271 0.079375,0.079375 0 0 0 -0.0527,-0.09974 c -1.70701,-0.509449 -3.38038,-0.799338 -5.01933,-0.86713 -0.20487,-0.0085 -0.40959,-0.01351 -0.6134,-0.01499 z m 0,0.386539 c -1.42666,-0.01036 -2.82696,0.150903 -4.19923,0.485759 a 0.079375,0.079375 0 0 0 -0.0584,0.0956 0.079375,0.079375 0 0 0 0.0956,0.05891 c 3.10741,-0.758255 6.35646,-0.615753 9.74773,0.396359 a 0.079375,0.079375 0 0 0 0.0997,-0.05478 0.079375,0.079375 0 0 0 -0.0527,-0.09767 c -1.70701,-0.509449 -3.38038,-0.801406 -5.01933,-0.869197 -0.20487,-0.0085 -0.40959,-0.01351 -0.6134,-0.01499 z m 0,1.337903 c -1.42666,-0.01036 -2.82696,0.150903 -4.19923,0.485759 a 0.079375,0.079375 0 0 0 -0.0584,0.0956 0.079375,0.079375 0 0 0 0.0956,0.05891 c 3.10741,-0.758255 6.35646,-0.61782 9.74773,0.394291 a 0.079375,0.079375 0 0 0 0.0997,-0.05271 0.079375,0.079375 0 0 0 -0.0527,-0.09767 c -1.70701,-0.509451 -3.38038,-0.801406 -5.01933,-0.869198 -0.20487,-0.0085 -0.40959,-0.01351 -0.6134,-0.01499 z m -0.30489,0.396875 c -1.32128,0.01314 -2.62009,0.174304 -3.89434,0.485242 a 0.079375,0.079375 0 0 0 -0.0584,0.0956 0.079375,0.079375 0 0 0 0.0956,0.05891 c 3.10741,-0.758255 6.35646,-0.615753 9.74773,0.396359 a 0.079375,0.079375 0 0 0 0.0997,-0.05478 0.079375,0.079375 0 0 0 -0.0527,-0.09767 c -1.70701,-0.509449 -3.38038,-0.801405 -5.01933,-0.869197 -0.3073,-0.01271 -0.61338,-0.0175 -0.91829,-0.01447 z m 0.30489,0.397909 c -1.42666,-0.01073 -2.82696,0.149354 -4.19923,0.484208 a 0.079375,0.079375 0 0 0 -0.0584,0.0956 0.079375,0.079375 0 0 0 0.0956,0.0584 c 3.10741,-0.758256 6.35646,-0.615753 9.74773,0.396358 a 0.079375,0.079375 0 0 0 0.0997,-0.05271 0.079375,0.079375 0 0 0 -0.0527,-0.09922 c -1.70701,-0.50945 -3.38038,-0.799855 -5.01933,-0.867647 -0.20487,-0.0085 -0.40959,-0.01345 -0.6134,-0.01499 z m 0,1.336352 c -1.42666,-0.01036 -2.82696,0.150903 -4.19923,0.485759 a 0.079375,0.079375 0 0 0 -0.0584,0.0956 0.079375,0.079375 0 0 0 0.0956,0.05839 c 3.10741,-0.758255 6.35646,-0.615753 9.74773,0.396359 a 0.079375,0.079375 0 0 0 0.0997,-0.05426 0.079375,0.079375 0 0 0 -0.0527,-0.09767 c -1.70701,-0.509449 -3.38038,-0.801406 -5.01933,-0.869198 -0.20487,-0.0085 -0.40959,-0.01351 -0.6134,-0.01499 z m 0,0.388607 c -1.42666,-0.01036 -2.82696,0.150902 -4.19923,0.485758 a 0.079375,0.079375 0 0 0 -0.0584,0.0956 0.079375,0.079375 0 0 0 0.0956,0.05839 c 3.10741,-0.758254 6.35646,-0.617304 9.74773,0.394808 a 0.079375,0.079375 0 0 0 0.0997,-0.05271 0.079375,0.079375 0 0 0 -0.0527,-0.09974 c -1.70701,-0.509451 -3.38038,-0.799338 -5.01933,-0.867131 -0.20487,-0.0085 -0.40959,-0.01351 -0.6134,-0.01499 z m 0,0.38654 c -1.42666,-0.01036 -2.82696,0.150902 -4.19923,0.485758 a 0.079375,0.079375 0 0 0 -0.0584,0.0956 0.079375,0.079375 0 0 0 0.0956,0.05891 c 3.10741,-0.758256 6.35646,-0.615754 9.74773,0.396358 a 0.079375,0.079375 0 0 0 0.0997,-0.05478 0.079375,0.079375 0 0 0 -0.0527,-0.09767 c -1.70701,-0.50945 -3.38038,-0.801405 -5.01933,-0.869197 -0.20487,-0.0085 -0.40959,-0.01351 -0.6134,-0.01499 z m 0,0.388606 c -1.42666,-0.01036 -2.82696,0.150903 -4.19923,0.485759 a 0.079375,0.079375 0 0 0 -0.0584,0.0956 0.079375,0.079375 0 0 0 0.0956,0.05891 c 3.10741,-0.758255 6.35646,-0.617819 9.74773,0.394292 a 0.079375,0.079375 0 0 0 0.0997,-0.05271 0.079375,0.079375 0 0 0 -0.0527,-0.09767 c -1.70701,-0.50945 -3.38038,-0.801405 -5.01933,-0.869197 -0.20487,-0.0085 -0.40959,-0.01351 -0.6134,-0.01499 z m 0,0.388607 c -1.42666,-0.01073 -2.82696,0.148838 -4.19923,0.483692 a 0.079375,0.079375 0 0 0 -0.0584,0.09767 0.079375,0.079375 0 0 0 0.0956,0.05684 c 3.10741,-0.758255 6.35646,-0.615753 9.74773,0.396358 a 0.079375,0.079375 0 0 0 0.0997,-0.05271 0.079375,0.079375 0 0 0 -0.0527,-0.09922 c -1.70701,-0.50945 -3.38038,-0.799856 -5.01933,-0.867648 -0.20487,-0.0085 -0.40959,-0.01345 -0.6134,-0.01499 z m 0,0.387057 c -1.42666,-0.01036 -2.82696,0.150902 -4.19923,0.485758 a 0.079375,0.079375 0 0 0 -0.0584,0.0956 0.079375,0.079375 0 0 0 0.0956,0.05839 c 3.10741,-0.758255 6.35646,-0.615753 9.74773,0.396358 a 0.079375,0.079375 0 0 0 0.0997,-0.05426 0.079375,0.079375 0 0 0 -0.0527,-0.09767 c -1.70701,-0.509449 -3.38038,-0.801405 -5.01933,-0.869197 -0.20487,-0.0085 -0.40959,-0.01351 -0.6134,-0.01499 z m 0,1.337903 c -1.42666,-0.01036 -2.82696,0.150902 -4.19923,0.485758 a 0.079375,0.079375 0 0 0 -0.0584,0.0956 0.079375,0.079375 0 0 0 0.0956,0.05839 c 3.10741,-0.758255 6.35646,-0.617304 9.74773,0.394808 a 0.079375,0.079375 0 0 0 0.0997,-0.05271 0.079375,0.079375 0 0 0 -0.0527,-0.09974 c -1.70701,-0.50945 -3.38038,-0.799337 -5.01933,-0.86713 -0.20487,-0.0085 -0.40959,-0.01351 -0.6134,-0.01499 z m 0,0.396358 c -1.42666,-0.01036 -2.82696,0.150902 -4.19923,0.485758 a 0.079375,0.079375 0 0 0 -0.0584,0.0956 0.079375,0.079375 0 0 0 0.0956,0.05839 c 3.10741,-0.758255 6.35646,-0.615236 9.74773,0.396875 a 0.079375,0.079375 0 0 0 0.0997,-0.05478 0.079375,0.079375 0 0 0 -0.0527,-0.09767 c -1.70701,-0.50945 -3.38038,-0.801406 -5.01933,-0.869198 -0.20487,-0.0085 -0.40959,-0.01351 -0.6134,-0.01499 z m 0,0.396358 c -1.42666,-0.01036 -2.82696,0.150902 -4.19923,0.485759 a 0.079375,0.079375 0 0 0 -0.0584,0.0956 0.079375,0.079375 0 0 0 0.0956,0.05891 c 3.10741,-0.758255 6.35646,-0.615753 9.74773,0.396358 a 0.079375,0.079375 0 0 0 0.0997,-0.05478 0.079375,0.079375 0 0 0 -0.0527,-0.09767 c -1.70701,-0.509451 -3.38038,-0.801406 -5.01933,-0.869198 -0.20487,-0.0085 -0.40959,-0.01351 -0.6134,-0.01499 z" /><path
                 id="path8748"
                 style="fill:url(#linearGradient8756);fill-opacity:1;fill-rule:evenodd;stroke-width:0.720259;stop-color:#000000"
                 d="m 84.848564,46.136719 0.987216,-0.244422 v 18.932166 l -0.987216,0.355534 z" /><path
                 id="path8752"
                 style="color:#000000;fill:#1a1a1a;fill-opacity:1;stroke-linecap:round"
                 d="m 93.14684,47.273838 c 1.42666,-0.01036 2.82696,0.150902 4.19923,0.485758 a 0.079375,0.079375 0 0 1 0.0584,0.0956 0.079375,0.079375 0 0 1 -0.0956,0.05891 c -3.10741,-0.758255 -6.35646,-0.615752 -9.74773,0.396359 a 0.079375,0.079375 0 0 1 -0.0997,-0.05478 0.079375,0.079375 0 0 1 0.0527,-0.09767 c 1.70701,-0.509449 3.38038,-0.801405 5.01933,-0.869197 0.20487,-0.0085 0.40959,-0.01351 0.6134,-0.01499 z m 0.30489,0.396875 c 1.32128,0.01314 2.62009,0.174303 3.89434,0.485241 a 0.079375,0.079375 0 0 1 0.0584,0.09612 0.079375,0.079375 0 0 1 -0.0956,0.05839 c -3.10741,-0.758256 -6.35646,-0.615753 -9.74773,0.396358 a 0.079375,0.079375 0 0 1 -0.0997,-0.05478 0.079375,0.079375 0 0 1 0.0527,-0.09767 c 1.70701,-0.50945 3.38038,-0.801405 5.01933,-0.869197 0.3073,-0.01271 0.61338,-0.0175 0.91829,-0.01447 z m -0.30489,0.397908 c 1.42666,-0.01073 2.82696,0.149355 4.19923,0.484208 a 0.079375,0.079375 0 0 1 0.0584,0.0956 0.079375,0.079375 0 0 1 -0.0956,0.05839 c -3.10741,-0.758254 -6.35646,-0.615754 -9.74773,0.396358 a 0.079375,0.079375 0 0 1 -0.0997,-0.05271 0.079375,0.079375 0 0 1 0.0527,-0.09922 c 1.70701,-0.50945 3.38038,-0.799855 5.01933,-0.867647 0.20487,-0.0085 0.40959,-0.01345 0.6134,-0.01499 z m 0,1.336353 c 1.42666,-0.01036 2.82696,0.150902 4.19923,0.485758 a 0.079375,0.079375 0 0 1 0.0584,0.0956 0.079375,0.079375 0 0 1 -0.0956,0.0584 c -3.10741,-0.758255 -6.35646,-0.615753 -9.74773,0.396358 a 0.079375,0.079375 0 0 1 -0.0997,-0.05426 0.079375,0.079375 0 0 1 0.0527,-0.09767 c 1.70701,-0.50945 3.38038,-0.801405 5.01933,-0.869197 0.20487,-0.0085 0.40959,-0.01351 0.6134,-0.01499 z m 0,0.396358 c 1.42666,-0.01036 2.82696,0.150901 4.19923,0.485758 a 0.079375,0.079375 0 0 1 0.0584,0.0956 0.079375,0.079375 0 0 1 -0.0956,0.05839 c -3.10741,-0.758254 -6.35646,-0.615237 -9.74773,0.396875 a 0.079375,0.079375 0 0 1 -0.0997,-0.05478 0.079375,0.079375 0 0 1 0.0527,-0.09767 c 1.70701,-0.509451 3.38038,-0.801405 5.01933,-0.869198 0.20487,-0.0085 0.40959,-0.01351 0.6134,-0.01499 z m 0.30489,0.398425 c 1.32128,0.01266 2.62009,0.172756 3.89434,0.483691 a 0.079375,0.079375 0 0 1 0.0584,0.0956 0.079375,0.079375 0 0 1 -0.0956,0.05891 c -3.10741,-0.758255 -6.35646,-0.615753 -9.74773,0.396358 a 0.079375,0.079375 0 0 1 -0.0997,-0.05271 0.079375,0.079375 0 0 1 0.0527,-0.09973 c 1.70701,-0.50945 3.38038,-0.799339 5.01933,-0.867131 0.3073,-0.01271 0.61338,-0.01791 0.91829,-0.01499 z m -0.30489,1.335836 c 1.42666,-0.01036 2.82696,0.150901 4.19923,0.485758 a 0.079375,0.079375 0 0 1 0.0584,0.0956 0.079375,0.079375 0 0 1 -0.0956,0.05891 c -3.10741,-0.758254 -6.35646,-0.615754 -9.74773,0.396358 a 0.079375,0.079375 0 0 1 -0.0997,-0.05478 0.079375,0.079375 0 0 1 0.0527,-0.09767 c 1.70701,-0.509451 3.38038,-0.801405 5.01933,-0.869198 0.20487,-0.0085 0.40959,-0.01351 0.6134,-0.01499 z m 0,0.388607 c 1.42666,-0.01036 2.82696,0.150902 4.19923,0.485758 a 0.079375,0.079375 0 0 1 0.0584,0.0956 0.079375,0.079375 0 0 1 -0.0956,0.05891 c -3.10741,-0.758256 -6.35646,-0.617821 -9.74773,0.394291 a 0.079375,0.079375 0 0 1 -0.0997,-0.05271 0.079375,0.079375 0 0 1 0.0527,-0.09974 c 1.70701,-0.50945 3.38038,-0.799337 5.01933,-0.86713 0.20487,-0.0085 0.40959,-0.01351 0.6134,-0.01499 z m 0,0.388606 c 1.42666,-0.01073 2.82696,0.148838 4.19923,0.483692 a 0.079375,0.079375 0 0 1 0.0584,0.09612 0.079375,0.079375 0 0 1 -0.0956,0.05839 c -3.10741,-0.758255 -6.35646,-0.615752 -9.74773,0.396359 a 0.079375,0.079375 0 0 1 -0.0997,-0.05271 0.079375,0.079375 0 0 1 0.0527,-0.09922 c 1.70701,-0.509451 3.38038,-0.799856 5.01933,-0.867647 0.20487,-0.0085 0.40959,-0.01345 0.6134,-0.01499 z m 0,0.387057 c 1.42666,-0.01036 2.82696,0.150902 4.19923,0.485758 a 0.079375,0.079375 0 0 1 0.0584,0.0956 0.079375,0.079375 0 0 1 -0.0956,0.05839 c -3.10741,-0.758255 -6.35646,-0.615753 -9.74773,0.396358 a 0.079375,0.079375 0 0 1 -0.0997,-0.05426 0.079375,0.079375 0 0 1 0.0527,-0.09767 c 1.70701,-0.509451 3.38038,-0.801406 5.01933,-0.869198 0.20487,-0.0085 0.40959,-0.01351 0.6134,-0.01499 z m 0,0.388607 c 1.42666,-0.01036 2.82696,0.150902 4.19923,0.485758 a 0.079375,0.079375 0 0 1 0.0584,0.0956 0.079375,0.079375 0 0 1 -0.0956,0.05684 c -3.10741,-0.758256 -6.35646,-0.615753 -9.74773,0.396358 a 0.079375,0.079375 0 0 1 -0.0997,-0.05271 0.079375,0.079375 0 0 1 0.0527,-0.09974 c 1.70701,-0.509449 3.38038,-0.799338 5.01933,-0.86713 0.20487,-0.0085 0.40959,-0.01351 0.6134,-0.01499 z m 0,0.386539 c 1.42666,-0.01036 2.82696,0.150903 4.19923,0.485759 a 0.079375,0.079375 0 0 1 0.0584,0.0956 0.079375,0.079375 0 0 1 -0.0956,0.05891 c -3.10741,-0.758255 -6.35646,-0.615753 -9.74773,0.396359 a 0.079375,0.079375 0 0 1 -0.0997,-0.05478 0.079375,0.079375 0 0 1 0.0527,-0.09767 c 1.70701,-0.509449 3.38038,-0.801406 5.01933,-0.869197 0.20487,-0.0085 0.40959,-0.01351 0.6134,-0.01499 z m 0,1.337903 c 1.42666,-0.01036 2.82696,0.150903 4.19923,0.485759 a 0.079375,0.079375 0 0 1 0.0584,0.0956 0.079375,0.079375 0 0 1 -0.0956,0.05891 c -3.10741,-0.758255 -6.35646,-0.61782 -9.74773,0.394291 a 0.079375,0.079375 0 0 1 -0.0997,-0.05271 0.079375,0.079375 0 0 1 0.0527,-0.09767 c 1.70701,-0.509451 3.38038,-0.801406 5.01933,-0.869198 0.20487,-0.0085 0.40959,-0.01351 0.6134,-0.01499 z m 0.30489,0.396875 c 1.32128,0.01314 2.62009,0.174304 3.89434,0.485242 a 0.079375,0.079375 0 0 1 0.0584,0.0956 0.079375,0.079375 0 0 1 -0.0956,0.05891 c -3.10741,-0.758255 -6.35646,-0.615753 -9.74773,0.396359 a 0.079375,0.079375 0 0 1 -0.0997,-0.05478 0.079375,0.079375 0 0 1 0.0527,-0.09767 c 1.70701,-0.509449 3.38038,-0.801405 5.01933,-0.869197 0.3073,-0.01271 0.61338,-0.0175 0.91829,-0.01447 z m -0.30489,0.397909 c 1.42666,-0.01073 2.82696,0.149354 4.19923,0.484208 a 0.079375,0.079375 0 0 1 0.0584,0.0956 0.079375,0.079375 0 0 1 -0.0956,0.0584 c -3.10741,-0.758256 -6.35646,-0.615753 -9.74773,0.396358 a 0.079375,0.079375 0 0 1 -0.0997,-0.05271 0.079375,0.079375 0 0 1 0.0527,-0.09922 c 1.70701,-0.50945 3.38038,-0.799855 5.01933,-0.867647 0.20487,-0.0085 0.40959,-0.01345 0.6134,-0.01499 z m 0,1.336352 c 1.42666,-0.01036 2.82696,0.150903 4.19923,0.485759 a 0.079375,0.079375 0 0 1 0.0584,0.0956 0.079375,0.079375 0 0 1 -0.0956,0.05839 c -3.10741,-0.758255 -6.35646,-0.615753 -9.74773,0.396359 a 0.079375,0.079375 0 0 1 -0.0997,-0.05426 0.079375,0.079375 0 0 1 0.0527,-0.09767 c 1.70701,-0.509449 3.38038,-0.801406 5.01933,-0.869198 0.20487,-0.0085 0.40959,-0.01351 0.6134,-0.01499 z m 0,0.388607 c 1.42666,-0.01036 2.82696,0.150902 4.19923,0.485758 a 0.079375,0.079375 0 0 1 0.0584,0.0956 0.079375,0.079375 0 0 1 -0.0956,0.05839 c -3.10741,-0.758254 -6.35646,-0.617304 -9.74773,0.394808 a 0.079375,0.079375 0 0 1 -0.0997,-0.05271 0.079375,0.079375 0 0 1 0.0527,-0.09974 c 1.70701,-0.509451 3.38038,-0.799338 5.01933,-0.867131 0.20487,-0.0085 0.40959,-0.01351 0.6134,-0.01499 z m 0,0.38654 c 1.42666,-0.01036 2.82696,0.150902 4.19923,0.485758 a 0.079375,0.079375 0 0 1 0.0584,0.0956 0.079375,0.079375 0 0 1 -0.0956,0.05891 c -3.10741,-0.758256 -6.35646,-0.615754 -9.74773,0.396358 a 0.079375,0.079375 0 0 1 -0.0997,-0.05478 0.079375,0.079375 0 0 1 0.0527,-0.09767 c 1.70701,-0.50945 3.38038,-0.801405 5.01933,-0.869197 0.20487,-0.0085 0.40959,-0.01351 0.6134,-0.01499 z m 0,0.388606 c 1.42666,-0.01036 2.82696,0.150903 4.19923,0.485759 a 0.079375,0.079375 0 0 1 0.0584,0.0956 0.079375,0.079375 0 0 1 -0.0956,0.05891 c -3.10741,-0.758255 -6.35646,-0.617819 -9.74773,0.394292 a 0.079375,0.079375 0 0 1 -0.0997,-0.05271 0.079375,0.079375 0 0 1 0.0527,-0.09767 c 1.70701,-0.50945 3.38038,-0.801405 5.01933,-0.869197 0.20487,-0.0085 0.40959,-0.01351 0.6134,-0.01499 z m 0,0.388607 c 1.42666,-0.01073 2.82696,0.148838 4.19923,0.483692 a 0.079375,0.079375 0 0 1 0.0584,0.09767 0.079375,0.079375 0 0 1 -0.0956,0.05684 c -3.10741,-0.758255 -6.35646,-0.615753 -9.74773,0.396358 a 0.079375,0.079375 0 0 1 -0.0997,-0.05271 0.079375,0.079375 0 0 1 0.0527,-0.09922 c 1.70701,-0.50945 3.38038,-0.799856 5.01933,-0.867648 0.20487,-0.0085 0.40959,-0.01345 0.6134,-0.01499 z m 0,0.387057 c 1.42666,-0.01036 2.82696,0.150902 4.19923,0.485758 a 0.079375,0.079375 0 0 1 0.0584,0.0956 0.079375,0.079375 0 0 1 -0.0956,0.05839 c -3.10741,-0.758255 -6.35646,-0.615753 -9.74773,0.396358 a 0.079375,0.079375 0 0 1 -0.0997,-0.05426 0.079375,0.079375 0 0 1 0.0527,-0.09767 c 1.70701,-0.509449 3.38038,-0.801405 5.01933,-0.869197 0.20487,-0.0085 0.40959,-0.01351 0.6134,-0.01499 z m 0,1.337903 c 1.42666,-0.01036 2.82696,0.150902 4.19923,0.485758 a 0.079375,0.079375 0 0 1 0.0584,0.0956 0.079375,0.079375 0 0 1 -0.0956,0.05839 c -3.10741,-0.758255 -6.35646,-0.617304 -9.74773,0.394808 a 0.079375,0.079375 0 0 1 -0.0997,-0.05271 0.079375,0.079375 0 0 1 0.0527,-0.09974 c 1.70701,-0.50945 3.38038,-0.799337 5.01933,-0.86713 0.20487,-0.0085 0.40959,-0.01351 0.6134,-0.01499 z m 0,0.396358 c 1.42666,-0.01036 2.82696,0.150902 4.19923,0.485758 a 0.079375,0.079375 0 0 1 0.0584,0.0956 0.079375,0.079375 0 0 1 -0.0956,0.05839 c -3.10741,-0.758255 -6.35646,-0.615236 -9.74773,0.396875 a 0.079375,0.079375 0 0 1 -0.0997,-0.05478 0.079375,0.079375 0 0 1 0.0527,-0.09767 c 1.70701,-0.50945 3.38038,-0.801406 5.01933,-0.869198 0.20487,-0.0085 0.40959,-0.01351 0.6134,-0.01499 z m 0,0.396358 c 1.42666,-0.01036 2.82696,0.150902 4.19923,0.485759 a 0.079375,0.079375 0 0 1 0.0584,0.0956 0.079375,0.079375 0 0 1 -0.0956,0.05891 C 94.20146,60.896098 90.95241,61.0386 87.56114,62.050711 a 0.079375,0.079375 0 0 1 -0.0997,-0.05478 0.079375,0.079375 0 0 1 0.0527,-0.09767 c 1.70701,-0.509451 3.38038,-0.801406 5.01933,-0.869198 0.20487,-0.0085 0.40959,-0.01351 0.6134,-0.01499 z" /><path
                 style="font-variation-settings:normal;opacity:1;fill:none;fill-opacity:1;stroke:#1a1a1a;stroke-width:0.423333;stroke-linecap:round;stroke-linejoin:miter;stroke-miterlimit:4;stroke-dasharray:none;stroke-dashoffset:0;stroke-opacity:1;stop-color:#000000;stop-opacity:1"
                 d="m 99.235285,46.136718 v 18.76551"
                 id="path9731" /></g></g></g></g><g
         id="g8884"><g
           id="g8281"
           transform="matrix(0.58125077,0,0,0.58125077,1.7488717,11.116545)"><path
             id="rect3638"
             style="display:inline;opacity:1;fill:#f56726;fill-opacity:1;fill-rule:evenodd;stroke-width:0.311415;stroke-dasharray:none;stop-color:#000000"
             d="m 76.008797,86.745093 c -5.627814,-0.0339 -10.896112,3.068429 -16.444474,4.944401 -4.835767,1.635032 -12.509704,3.454802 -17.282149,-1.886707 -0.531802,4.170712 -0.05573,9.174766 2.385384,12.488123 2.326931,3.15838 7.059465,4.05839 11.92692,2.0345 6.246417,-2.59725 11.531488,-4.571338 16.935917,-5.486482 -1.397772,1.034703 -2.222657,2.670472 -2.223637,4.409552 v 5.04879 c 2e-6,3.03209 2.458008,5.4901 5.490105,5.4901 h 22.189343 22.189344 c 3.0321,0 5.4901,-2.45801 5.4901,-5.4901 v -5.04879 c -9.8e-4,-1.73908 -0.82586,-3.374849 -2.22363,-4.409552 5.40443,0.915144 10.6895,2.889232 16.93591,5.486482 4.86746,2.02389 9.6,1.12388 11.92692,-2.0345 2.44109,-3.313357 2.91719,-8.317411 2.38539,-12.488123 -4.77245,5.341509 -12.44639,3.521739 -17.28215,1.886707 -5.54837,-1.875972 -10.81666,-4.978301 -16.44448,-4.944401 -0.93962,0.0057 -1.8894,0.09855 -2.85206,0.299336 -0.17479,0.03646 -0.36281,0.206503 -0.42315,0.374551 -1.66238,4.630139 -4.30826,8.069741 -7.06937,11.369822 2.64378,-0.457638 5.30745,-0.611957 7.99331,-0.467672 0.90433,0.04858 2.48514,0.495939 2.63963,1.534273 0.17939,1.205717 -1.22544,2.130107 -3.03444,2.130107 H 98.986206 78.754883 c -1.809003,0 -3.213833,-0.92439 -3.034441,-2.130107 0.154489,-1.038334 1.735304,-1.485692 2.639633,-1.534273 2.68586,-0.144285 5.349524,0.01003 7.99331,0.467672 C 83.592176,95.488607 80.9462,92.048883 79.283837,87.418504 79.2236,87.250718 79.035647,87.080884 78.86086,87.044427 77.898196,86.843638 76.948421,86.75075 76.008797,86.745093 Z" /><path
             id="path4824"
             style="font-size:7.27604px;line-height:125%;font-family:'Helvetica Condensed';letter-spacing:0px;word-spacing:0px;fill:#ffffff;fill-opacity:1;stroke-width:0.264583"
             d="m 68.896053,91.565987 -3.244247,1.040763 0.24443,0.761194 1.136365,-0.364836 1.422652,4.435389 0.971,-0.311609 -1.422652,-4.434872 1.136881,-0.364835 z m -4.644678,1.460893 c -0.214206,0.0025 -0.455315,0.05203 -0.723987,0.148311 -1.007799,0.36117 -1.349909,0.993002 -1.026294,1.896008 0.11826,0.329988 0.317506,0.578115 0.598413,0.744141 0.283138,0.165227 0.65898,0.299946 1.126547,0.40411 0.450992,0.10004 0.766187,0.193451 0.945678,0.280086 0.181722,0.08584 0.310114,0.234668 0.386023,0.446484 0.140633,0.392418 0.0296,0.653686 -0.333829,0.783932 -0.405796,0.145426 -0.710916,-0.06603 -0.914673,-0.634587 l -0.106454,-0.297656 -0.960148,0.343648 0.144177,0.401526 c 0.364366,1.016718 1.068025,1.338237 2.111499,0.964282 0.494981,-0.177388 0.827631,-0.446255 0.997872,-0.806669 0.170266,-0.360414 0.171183,-0.77598 0.0026,-1.246435 -0.127848,-0.356743 -0.322289,-0.611828 -0.583427,-0.764812 -0.259706,-0.156011 -0.657982,-0.297429 -1.194242,-0.42478 -0.500251,-0.125158 -0.820432,-0.219373 -0.961182,-0.282153 -0.139318,-0.06581 -0.240731,-0.186627 -0.303857,-0.362769 -0.115063,-0.321069 0.0015,-0.544041 0.349333,-0.668693 0.37012,-0.132642 0.640089,0.03875 0.810286,0.513664 l 0.06149,0.170532 0.929659,-0.333313 C 65.398296,93.7198 65.133494,93.339054 64.812581,93.159688 64.65284,93.068489 64.465582,93.024336 64.251375,93.02688 Z m -2.722831,0.966349 -2.71663,1.002006 1.888257,5.120105 2.71663,-1.00201 -0.276469,-0.749825 -1.760099,0.649056 -0.578776,-1.56993 1.626774,-0.599964 -0.276986,-0.750341 -1.626257,0.599963 -0.479558,-1.299662 1.7601,-0.649056 z m -3.477307,1.163753 -0.963249,0.334863 1.228866,3.537252 c 0.12746,0.366924 0.160235,0.634775 0.0987,0.804085 -0.0593,0.168538 -0.211746,0.295878 -0.457854,0.381368 -0.228209,0.0793 -0.419487,0.0667 -0.573608,-0.0377 -0.154898,-0.10666 -0.292424,-0.333794 -0.412895,-0.680578 L 55.742334,95.959 l -0.963249,0.334864 1.256771,3.617867 c 0.204412,0.588419 0.474887,0.967069 0.811837,1.135849 0.336172,0.16654 0.805304,0.14499 1.407149,-0.0641 0.604083,-0.20985 0.979898,-0.48844 1.12758,-0.83561 0.146906,-0.349401 0.122225,-0.806993 -0.07441,-1.373041 z m -5.04207,1.272791 c -0.193213,0.0041 -0.405433,0.03761 -0.636137,0.09974 -0.665526,0.179217 -1.070651,0.477134 -1.215946,0.894002 -0.143625,0.413965 -0.106076,1.028083 0.113171,1.842265 l 0.28267,1.04954 c 0.226638,0.84163 0.519441,1.37616 0.877466,1.60352 0.359696,0.22446 0.83681,0.25676 1.431437,0.0966 0.388796,-0.1047 0.67617,-0.23373 0.862997,-0.38706 l 0.701766,0.37776 0.366902,-0.5917 -0.679028,-0.37672 c 0.106945,-0.37711 0.06515,-0.91771 -0.12454,-1.622118 l -0.28422,-1.056783 C 54.464902,97.46459 54.169221,96.8956 53.818937,96.65143 53.601053,96.497009 53.33119,96.422932 53.009167,96.429738 Z m -0.187585,0.86403 c 0.159246,0.0035 0.291488,0.06536 0.396358,0.185518 0.154825,0.17416 0.282856,0.44998 0.384473,0.82734 l 0.452685,1.681034 c 0.05789,0.214985 0.07507,0.374625 0.05168,0.479045 l -0.05994,-0.032 -0.418579,0.59117 0.224792,0.12351 c -0.06843,0.0282 -0.14401,0.0533 -0.226342,0.0755 -0.459694,0.12379 -0.787559,-0.17758 -0.983403,-0.90486 l -0.45992,-1.708418 c -0.197077,-0.73185 -0.06244,-1.16059 0.40411,-1.286227 0.08362,-0.02252 0.161709,-0.03311 0.234094,-0.03152 z" /><path
             id="path4803"
             style="font-size:6.61458px;line-height:125%;font-family:'Helvetica Condensed';letter-spacing:0px;word-spacing:0px;fill:#ffffff;fill-opacity:1;stroke-width:0.264583"
             d="m 121.22309,90.374328 -2.63188,0.05219 0.0977,4.959903 2.63188,-0.05219 -0.0145,-0.72657 -1.70481,0.03359 -0.03,-1.520837 1.57562,-0.03101 -0.0145,-0.726571 -1.57562,0.03101 -0.0248,-1.259354 1.7048,-0.03359 z m 1.00666,0.07596 0.87178,2.553332 -1.54203,2.36213 1.00563,0.128674 0.9586,-1.53789 0.53743,1.729093 1.02526,0.131258 -0.92036,-2.657719 1.50792,-2.268595 -1.03508,-0.132292 -0.86919,1.451591 -0.50488,-1.627291 z m 5.11028,0.79685 c -0.27676,0.0024 -0.51397,0.07589 -0.71107,0.221175 -0.31274,0.230903 -0.56623,0.725049 -0.76067,1.48208 l -0.26097,1.016476 c -0.18104,0.704895 -0.19767,1.240116 -0.0491,1.60507 0.1512,0.363404 0.52087,0.620472 1.10897,0.771529 0.49844,0.128023 0.89136,0.05783 1.17823,-0.21084 0.28687,-0.26867 0.50188,-0.682357 0.64543,-1.241268 l -0.89761,-0.230993 c -0.10124,0.394157 -0.21026,0.663284 -0.32712,0.806669 -0.11632,0.141301 -0.25388,0.191608 -0.41237,0.150895 -0.20856,-0.05357 -0.34871,-0.170769 -0.42013,-0.3514 -0.0693,-0.180095 -0.058,-0.449516 0.0341,-0.808219 l 0.40049,-1.558045 c 0.17142,-0.667356 0.46859,-0.946415 0.89194,-0.837675 0.16891,0.04339 0.26534,0.144942 0.28887,0.304375 0.0235,0.159433 -0.003,0.387023 -0.0791,0.683162 l 0.88211,0.226343 c 0.14034,-0.546398 0.13598,-0.977584 -0.0139,-1.293978 -0.14993,-0.316395 -0.46904,-0.537147 -0.95705,-0.662492 -0.19473,-0.05002 -0.37499,-0.07429 -0.54105,-0.07286 z m 2.97088,0.876433 -1.58078,4.702038 2.49493,0.839225 0.23152,-0.688846 -1.61644,-0.543637 0.48472,-1.441772 1.49397,0.502295 0.23151,-0.688847 -1.49397,-0.502295 0.40153,-1.193725 1.61644,0.543119 0.23151,-0.688847 z m 3.26543,1.127579 -1.6893,4.664315 2.47478,0.896586 0.24753,-0.683162 -1.60352,-0.580843 1.44229,-3.981153 z m 3.10007,1.130164 -1.68258,4.666898 2.47633,0.892969 0.2465,-0.683679 -1.60456,-0.578259 1.43661,-3.98322 z m 2.89647,1.043347 -1.57975,4.702559 2.49545,0.83819 0.23151,-0.68884 -1.61695,-0.543128 0.48472,-1.441773 1.49397,0.501779 0.23151,-0.688847 -1.49397,-0.501778 0.40101,-1.194243 1.61644,0.54312 0.23151,-0.688847 z m 2.81843,0.963765 -1.28416,4.791964 0.89555,0.23977 0.79272,-2.957442 0.41754,3.281962 0.93586,0.25115 1.28416,-4.791949 -0.89503,-0.239779 -0.81287,3.031856 -0.39739,-3.356384 z m 8.72918,0.706417 -2.59106,0.465605 0.87695,4.882382 2.59106,-0.46509 -0.12867,-0.7152 -1.67845,0.30128 -0.26872,-1.49706 1.55132,-0.278541 -0.12867,-0.715202 -1.55133,0.278536 -0.22272,-1.239717 1.67897,-0.301791 z m -4.3341,0.284221 c -0.39438,2.3e-4 -0.70571,0.111285 -0.93431,0.332796 -0.27896,0.270742 -0.46432,0.794185 -0.55552,1.570447 l -0.12248,1.042313 c -0.0849,0.72281 -0.0292,1.25506 0.16692,1.59681 0.19855,0.33984 0.59946,0.54564 1.20251,0.6165 0.5111,0.0601 0.89069,-0.0627 1.13895,-0.36742 0.24826,-0.3047 0.40601,-0.74361 0.47335,-1.31672 l -0.92035,-0.10801 c -0.0475,0.40417 -0.11995,0.6851 -0.21653,0.84284 -0.0963,0.15565 -0.22556,0.22377 -0.38809,0.20464 -0.21384,-0.0251 -0.36802,-0.12203 -0.46302,-0.29146 -0.0929,-0.16917 -0.11813,-0.43782 -0.0749,-0.80563 l 0.1881,-1.597315 c 0.0804,-0.68431 0.33743,-1.000819 0.77153,-0.949812 0.17324,0.02035 0.28245,0.107675 0.32711,0.262516 0.0447,0.154841 0.0491,0.384151 0.0134,0.687813 l 0.90434,0.106454 c 0.0658,-0.560278 0.003,-0.987102 -0.18759,-1.280542 -0.19099,-0.293443 -0.53674,-0.469857 -1.03714,-0.52865 -0.0998,-0.01173 -0.19528,-0.01762 -0.28629,-0.01757 z" /></g><path
           id="path8267"
           style="font-size:7.09271px;line-height:125%;font-family:'Helvetica Condensed';letter-spacing:0px;word-spacing:0px;fill:#ffffff;fill-opacity:1;stroke:none;stroke-width:0.280691"
           d="m 58.939403,72.215336 c -0.359657,0 -0.617479,0.09509 -0.773151,0.28565 -0.155673,0.190563 -0.233388,0.540273 -0.233388,1.048891 v 0.616061 c 0,0.476411 0.07847,0.807224 0.235491,0.992422 0.157014,0.185198 0.416817,0.277542 0.779158,0.277542 0.37442,0 0.633922,-0.09661 0.778859,-0.289859 0.14627,-0.194585 0.219569,-0.519917 0.219569,-0.976204 v -0.619962 c 0,-0.461653 -0.06706,-0.799168 -0.201247,-1.012545 -0.134201,-0.21472 -0.40269,-0.321996 -0.805291,-0.321996 z m -7.866982,0.06428 v 3.092004 h 0.577611 v -1.400925 h 1.000532 v -0.452957 h -1.000532 v -0.785165 h 1.063009 v -0.452956 z m 14.363074,0 v 3.092004 h 0.577914 v -1.336643 h 0.209355 c 0.257668,0 0.418576,0.03505 0.482996,0.104828 0.06441,0.06844 0.09672,0.226613 0.09672,0.474882 0,0.397233 0.02058,0.649571 0.06218,0.756934 h 0.632278 v -0.05644 c -0.08455,-0.07516 -0.126759,-0.319264 -0.126759,-0.732603 V 74.34108 c 0,-0.169092 -0.03825,-0.301506 -0.114739,-0.396791 -0.0765,-0.09527 -0.191237,-0.15409 -0.344228,-0.176915 0.324768,-0.04429 0.486902,-0.291899 0.486902,-0.742815 0,-0.230821 -0.06629,-0.412613 -0.199148,-0.545469 -0.131514,-0.132863 -0.351546,-0.199445 -0.660208,-0.199445 z m -6.496092,0.402493 c 0.273769,0 0.410605,0.229018 0.410605,0.686643 v 0.984313 c 0,0.410654 -0.140339,0.616056 -0.420817,0.616056 -0.26706,0 -0.400393,-0.213627 -0.400393,-0.640387 v -1.002332 c 0,-0.429445 0.136836,-0.644293 0.410605,-0.644293 z m 7.074006,0.05045 h 0.418716 c 0.132862,0 0.225961,0.02953 0.279639,0.08861 0.05505,0.05905 0.0826,0.164349 0.0826,0.315991 0,0.296584 -0.120679,0.444849 -0.362241,0.444849 h -0.418714 z" /></g></g></g><metadata
     id="metadata8975"><rdf:RDF><cc:Work
         rdf:about=""><dc:title>United International University - ইউনাইটেড ইন্টারন্যাশনাল ইউনিভার্সিটি</dc:title></cc:Work></rdf:RDF></metadata></svg>
